<mxfile host="app.diagrams.net" modified="2023-07-11T06:51:22.642Z" agent="Mozilla/5.0 (Macintosh; Intel Mac OS X 10.15; rv:109.0) Gecko/20100101 Firefox/116.0" version="21.6.1" etag="lguCBhVMQMKev7mlSL8Z" type="github">
  <diagram name="Page-1" id="R94AKTrCsaa2VpaC3ov0">
    <mxGraphModel>
      <root>
        <mxCell id="0" />
        <mxCell id="1" parent="0" />
      </root>
    </mxGraphModel>
  </diagram>
</mxfile>
